<?xml version="1.0" standalone="no"?>
<!DOCTYPE svg PUBLIC "-//W3C//DTD SVG 20010904//EN"
 "http://www.w3.org/TR/2001/REC-SVG-20010904/DTD/svg10.dtd">
<svg version="1.0" xmlns="http://www.w3.org/2000/svg"
 width="413.000000pt" height="413.000000pt" viewBox="0 0 413.000000 413.000000"
 preserveAspectRatio="xMidYMid meet">
<metadata>
Created by potrace 1.14, written by Peter Selinger 2001-2017
</metadata>
<g transform="translate(0.000000,413.000000) scale(0.100000,-0.100000)"
fill="#000000" stroke="none">
<path d="M791 2848 c-25 -7 -34 -21 -76 -123 -52 -126 -55 -128 -142 -130 -29
0 -57 -5 -62 -10 -19 -20 -90 -196 -84 -211 4 -10 22 -14 63 -14 33 0 61 -4
64 -8 2 -4 -13 -51 -35 -102 -40 -96 -45 -106 -72 -170 -109 -254 -122 -319
-79 -392 39 -66 178 -101 288 -72 56 14 110 47 147 89 55 63 76 164 32 156
-46 -8 -125 -5 -135 5 -26 26 -13 78 52 225 13 30 41 95 62 145 21 49 44 97
50 106 9 13 34 18 100 21 57 2 92 9 101 18 8 8 32 57 54 109 46 110 48 107
-62 106 -39 -1 -72 3 -77 9 -6 7 7 51 36 119 34 81 43 111 35 119 -13 13 -214
16 -260 5z"/>
<path d="M1303 2584 c-31 -13 -82 -66 -84 -87 0 -7 -2 -21 -4 -31 -6 -32 22
-75 60 -90 96 -39 215 31 215 127 0 76 -96 118 -187 81z"/>
<path d="M1905 2593 c-26 -7 -82 -49 -94 -72 -32 -59 -12 -119 48 -145 93 -40
211 30 211 124 -1 72 -76 114 -165 93z"/>
<path d="M2495 2305 c-158 -47 -295 -202 -361 -410 -43 -133 -17 -236 68 -269
78 -32 203 -18 275 30 30 19 29 7 -4 -41 -57 -84 -98 -107 -181 -103 -54 3
-58 5 -81 41 -21 31 -30 37 -61 37 -44 0 -117 -36 -143 -71 -23 -32 -25 -91
-3 -124 30 -46 91 -68 205 -74 258 -15 416 74 525 295 113 229 236 539 238
601 3 58 -17 76 -89 83 -83 7 -114 2 -120 -21 -6 -22 -19 -25 -26 -6 -16 43
-149 60 -242 32z m118 -196 c31 -17 37 -28 37 -75 0 -59 -52 -158 -103 -195
-47 -34 -103 -39 -138 -11 -54 44 1 200 94 268 34 24 79 29 110 13z"/>
<path d="M3325 2301 c-98 -35 -155 -71 -219 -140 -128 -135 -188 -310 -160
-462 22 -120 100 -258 197 -350 l41 -38 50 27 c68 37 221 146 298 212 126 109
226 242 249 335 40 157 -42 335 -186 406 -66 32 -195 37 -270 10z m151 -201
c38 -15 53 -39 54 -85 0 -47 -37 -130 -72 -163 -25 -22 -96 -48 -128 -47 -51
3 -79 18 -94 48 -25 53 -4 130 51 193 52 58 123 79 189 54z"/>
<path d="M1135 2280 c-19 -37 -155 -358 -171 -403 -31 -88 -23 -169 21 -213
48 -48 205 -69 295 -39 26 9 69 34 93 56 90 78 120 209 42 178 -40 -15 -94
-10 -116 12 -27 27 -25 33 66 248 41 96 73 177 71 179 -2 2 -68 4 -146 5
l-142 2 -13 -25z"/>
<path d="M1700 2245 c-63 -137 -152 -358 -164 -402 -33 -125 10 -197 133 -224
129 -27 240 5 315 92 57 67 76 158 31 151 -86 -12 -104 -13 -123 -3 -11 6 -22
21 -24 33 -4 24 22 106 62 193 21 47 31 68 79 178 l18 42 -150 0 -150 0 -27
-60z"/>
</g>
</svg>
