<svg width="13" height="15" viewBox="0 0 13 15" fill="none" xmlns="http://www.w3.org/2000/svg">
<path id="Caminho 953" d="M4.888 11.972C5.07365 11.972 5.2517 11.8982 5.38297 11.767C5.51425 11.6357 5.588 11.4576 5.588 11.272V7.08499C5.588 6.89934 5.51425 6.72129 5.38297 6.59001C5.2517 6.45874 5.07365 6.38499 4.888 6.38499C4.70235 6.38499 4.5243 6.45874 4.39303 6.59001C4.26175 6.72129 4.188 6.89934 4.188 7.08499V11.275C4.18879 11.4601 4.26289 11.6374 4.39408 11.768C4.52527 11.8987 4.70287 11.972 4.888 11.972ZM11.871 3.59299H9.078V2.89299C9.07615 2.33811 8.85477 1.80652 8.46223 1.41435C8.06968 1.02218 7.53788 0.801306 6.983 0.799988H5.583C5.0283 0.802099 4.49696 1.0236 4.10501 1.41611C3.71305 1.80863 3.49232 2.34028 3.491 2.89499V3.59499H0.7C0.514349 3.59499 0.336301 3.66874 0.205025 3.80001C0.0737497 3.93129 0 4.10934 0 4.29499C0 4.48064 0.0737497 4.65869 0.205025 4.78996C0.336301 4.92124 0.514349 4.99499 0.7 4.99499H1.4V12.676C1.40132 13.2312 1.62247 13.7633 2.01507 14.1559C2.40767 14.5485 2.93978 14.7697 3.495 14.771H9.081C9.63622 14.7697 10.1683 14.5485 10.5609 14.1559C10.9535 13.7633 11.1747 13.2312 11.176 12.676V4.98999H11.876C12.0617 4.98999 12.2397 4.91624 12.371 4.78496C12.5022 4.65369 12.576 4.47564 12.576 4.28999C12.576 4.10434 12.5022 3.92629 12.371 3.79501C12.2397 3.66374 12.0617 3.58999 11.876 3.58999L11.871 3.59299ZM4.888 2.89299C4.888 2.80106 4.90611 2.71004 4.94128 2.62511C4.97646 2.54018 5.02802 2.46301 5.09303 2.39801C5.15803 2.33301 5.23519 2.28145 5.32012 2.24627C5.40505 2.21109 5.49608 2.19299 5.588 2.19299H6.988C7.17365 2.19299 7.3517 2.26674 7.48298 2.39801C7.61425 2.52929 7.688 2.70734 7.688 2.89299V3.59299H4.888V2.89299ZM9.776 12.669C9.776 12.8546 9.70225 13.0327 9.57097 13.164C9.4397 13.2952 9.26165 13.369 9.076 13.369H3.491C3.30535 13.369 3.1273 13.2952 2.99603 13.164C2.86475 13.0327 2.791 12.8546 2.791 12.669V4.98999H9.774L9.776 12.669ZM7.681 11.969C7.86665 11.969 8.0447 11.8952 8.17597 11.764C8.30725 11.6327 8.381 11.4546 8.381 11.269V7.08499C8.381 6.89934 8.30725 6.72129 8.17597 6.59001C8.0447 6.45874 7.86665 6.38499 7.681 6.38499C7.49535 6.38499 7.3173 6.45874 7.18603 6.59001C7.05475 6.72129 6.981 6.89934 6.981 7.08499V11.275C6.98179 11.4601 7.05589 11.6374 7.18708 11.768C7.31827 11.8987 7.49587 11.972 7.681 11.972V11.969Z" fill="#EF592A"/>
</svg>
