<svg width="127" height="57" viewBox="0 0 127 57" fill="none" xmlns="http://www.w3.org/2000/svg">
<mask id="mask0_6_512" style="mask-type:luminance" maskUnits="userSpaceOnUse" x="0" y="0" width="127" height="57">
<path d="M126.324 0H0V57H126.324V0Z" fill="white"/>
</mask>
<g mask="url(#mask0_6_512)">
<path d="M12.6983 32.8097L12.8084 32.4531C12.9453 32.0815 13.2842 31.2445 13.5613 30.5933L18.484 19.0598C18.6348 18.7298 18.8702 18.4459 19.166 18.2368C19.4619 18.0277 19.8077 17.901 20.1683 17.8696L24.9875 17.8394C25.3481 17.808 25.6939 17.6813 25.9897 17.4722C26.2856 17.2631 26.5209 16.9792 26.6718 16.6493L29.2959 10.4958C29.573 9.84461 29.3042 9.44788 28.6566 9.45122L23.5202 9.44118C22.8708 9.44118 22.6338 8.82516 22.9059 8.17399L25.8321 1.17182C26.1042 0.52065 25.7937 -0.00999504 25.1461 4.87143e-05L16.6327 0.0536154C16.274 0.0857687 15.9303 0.213123 15.637 0.42259C15.3436 0.632057 15.1111 0.916081 14.9635 1.24547L12.0339 8.24932C11.8862 8.57872 11.6538 8.86274 11.3604 9.07221C11.067 9.28167 10.7233 9.40903 10.3646 9.44118L7.21968 9.46127C6.85911 9.49273 6.51328 9.61944 6.21742 9.82851C5.92156 10.0376 5.68622 10.3215 5.53538 10.6515L2.9046 16.8066C2.6275 17.4578 2.91461 17.8612 3.56229 17.8579H6.96428C7.61363 17.8579 7.89073 18.4789 7.61697 19.1301L1.76782 32.9771C1.46512 33.6466 1.18691 34.3469 0.933178 35.0779C0.679448 35.8088 0.485255 36.4594 0.3506 37.0297C-0.384996 40.0161 0.0417832 42.1922 1.63094 43.5582C3.78245 45.0882 6.40685 45.8003 9.03419 45.5669C16.2488 45.5217 19.9179 37.6524 18.4873 36.3015C17.8964 35.7994 16.6645 36.7384 15.3157 36.7468C14.4397 36.8183 13.5645 36.5989 12.8251 36.1224C12.2787 35.6995 12.1524 34.8949 12.4462 33.7086C12.5052 33.4709 12.5897 33.174 12.6999 32.818" fill="#F0592B"/>
<path d="M37.1235 36.7702C36.249 36.8419 35.375 36.6269 34.6329 36.1575C34.0876 35.7424 33.9613 34.9506 34.254 33.7822C34.3124 33.5478 34.3976 33.2549 34.5077 32.9067L34.6179 32.5569C34.7548 32.1903 35.0937 31.3667 35.3708 30.7272L40.0447 19.9553C40.0447 19.9553 40.0881 19.813 40.0547 19.7594C40.0336 19.7306 40.0055 19.7077 39.9731 19.6927C39.9407 19.6778 39.905 19.6714 39.8695 19.6741H30.1559C29.8618 19.6723 29.5729 19.7522 29.3213 19.9051C29.1491 20.0822 29.0095 20.2885 28.909 20.5144L23.5673 33.0691C23.2547 33.7432 22.9762 34.4326 22.7326 35.1347C22.4823 35.8579 22.287 36.499 22.1467 37.0581C21.41 39.9976 21.8368 42.1375 23.4271 43.4778C25.5872 44.9873 28.2074 45.6882 30.8303 45.4581C38.0449 45.4129 41.714 37.6708 40.2834 36.34C39.6925 35.8529 38.4606 36.7685 37.1118 36.7769" fill="#F0592B"/>
<path d="M41.674 13.601C41.3274 14.8479 40.5752 15.9428 39.5369 16.7117C38.4985 17.4806 37.2336 17.8793 35.9433 17.8445C33.199 17.8445 31.3161 15.9446 31.7351 13.601C32.0813 12.3538 32.8334 11.2585 33.8718 10.4893C34.9102 9.7201 36.1752 9.32112 37.4657 9.35585C40.21 9.35585 42.093 11.2558 41.674 13.601Z" fill="#F0592B"/>
<path d="M62.86 13.601C62.5132 14.8477 61.7609 15.9425 60.7226 16.7113C59.6843 17.4802 58.4196 17.879 57.1294 17.8445C54.3851 17.8445 52.5021 15.9446 52.9211 13.601C53.2673 12.3538 54.0194 11.2585 55.0578 10.4893C56.0962 9.7201 57.3612 9.32112 58.6518 9.35585C61.396 9.35585 63.279 11.2558 62.86 13.601Z" fill="#F0592B"/>
<path d="M58.3097 36.7703C57.4353 36.8421 56.5612 36.6271 55.8192 36.1576C55.2739 35.7424 55.1476 34.9507 55.4403 33.7822C55.4987 33.5479 55.5838 33.2549 55.694 32.9068L55.8042 32.5569C55.941 32.1903 56.2799 31.3667 56.5587 30.7273L61.2327 19.9587C61.2327 19.9587 61.2777 19.813 61.2427 19.7595C61.2215 19.7307 61.1934 19.7077 61.161 19.6928C61.1286 19.6778 61.093 19.6714 61.0574 19.6741H51.2854C51.0258 19.6624 50.7697 19.7378 50.5576 19.8884C50.3748 20.0718 50.2222 20.2831 50.1052 20.5144L44.7636 33.0691C44.451 33.7432 44.1725 34.4327 43.9289 35.1348C43.6774 35.8579 43.4815 36.4991 43.3413 37.0582C42.6057 39.9976 43.0325 42.1375 44.6217 43.4778C46.7818 44.9873 49.402 45.6882 52.0249 45.4581C59.2395 45.4129 62.9086 37.6708 61.478 36.34C60.8871 35.8529 59.6568 36.7686 58.3064 36.7769" fill="#F0592B"/>
<path d="M95.3761 21.2007C94.8835 20.7347 94.2935 20.3845 93.649 20.1757C93.0045 19.967 92.3218 19.9048 91.6503 19.9938H89.4102C89.1414 19.9815 88.8756 20.0533 88.6494 20.1994C88.4233 20.3455 88.2481 20.5586 88.1482 20.809C88.1181 20.8994 88.0414 21.1087 87.9145 21.4301C87.8327 21.6443 87.7475 21.8636 87.6524 22.0846C87.4657 21.5874 87.1595 21.144 86.761 20.794C86.2647 20.3711 85.6868 20.0554 85.0633 19.8666C84.234 19.6253 83.3727 19.5124 82.5094 19.5318C80.2751 19.4936 78.064 19.9899 76.0593 20.9798C74.2378 21.9 72.5838 23.1212 71.1666 24.5922C69.7974 26.0134 68.6235 27.6117 67.6761 29.3446C66.8142 30.9047 66.078 32.5314 65.4744 34.2091C64.8728 35.7925 64.5214 37.4603 64.4327 39.1523C64.3681 40.3887 64.6265 41.6206 65.1822 42.7262C65.7219 43.706 66.5848 44.4671 67.6227 44.8789C68.7991 45.3364 70.0537 45.5576 71.3152 45.5301C73.0425 45.555 74.7535 45.1924 76.323 44.4688C77.2673 44.0104 78.1505 43.435 78.9521 42.7563C78.309 44.3528 77.4064 45.8314 76.2813 47.1321C75.6513 47.8307 74.8767 48.3829 74.0117 48.7501C73.1467 49.1173 72.2122 49.2907 71.2734 49.258C70.4688 49.3362 69.6577 49.2011 68.9214 48.8663C68.5661 48.6592 68.2727 48.3604 68.0718 48.0008L67.5476 46.9362C67.3964 46.6752 67.1713 46.4651 66.9009 46.3325C66.6304 46.1999 66.3269 46.1508 66.0286 46.1913C65.469 46.1992 64.9124 46.2751 64.371 46.4173C63.763 46.5724 63.1761 46.8012 62.6233 47.0986C62.0483 47.4037 61.5258 47.7993 61.0758 48.2703C60.6054 48.7661 60.2467 49.3576 60.0242 50.0046C59.7566 50.7468 59.7472 51.558 59.9975 52.3063C60.2859 53.1165 60.8163 53.8179 61.5165 54.315C62.4223 54.9521 63.4427 55.4069 64.5212 55.6542C66.0202 56.0071 67.5572 56.1713 69.0967 56.143C71.2128 56.1722 73.324 55.9286 75.3782 55.4182C77.0381 54.9981 78.6303 54.3443 80.1073 53.4764C81.3712 52.7206 82.5179 51.7833 83.5109 50.6942C84.3946 49.7155 85.1656 48.6402 85.8095 47.4886C86.4088 46.4005 87.0481 45.1451 87.7108 43.7339C88.3735 42.3228 89.068 40.8162 89.7407 39.2862C90.4134 37.7562 91.0761 36.2061 91.7221 34.6778C92.3681 33.1495 92.9357 31.7551 93.4365 30.4929C93.9372 29.2307 94.3579 28.1494 94.6901 27.2488C95.0223 26.3482 95.2326 25.7623 95.3177 25.5078C96.0088 23.4321 96.0255 22.0176 95.3695 21.194M83.4191 32.7126C82.8331 34.3531 81.8628 35.8285 80.5897 37.0146C79.5523 37.8434 78.2507 38.2674 76.9256 38.2082C76.5979 38.2311 76.2689 38.1884 75.9578 38.0826C75.6467 37.9768 75.3597 37.81 75.1134 37.5919C74.8672 37.3738 74.6667 37.1088 74.5236 36.8122C74.3805 36.5157 74.2976 36.1936 74.2798 35.8646C74.2765 34.64 74.5271 33.4281 75.016 32.3058C75.7309 30.466 76.9296 28.8549 78.4847 27.6438C79.3681 27.028 80.4345 26.7327 81.5078 26.8068C82.056 26.8029 82.5917 26.9715 83.0394 27.289C83.4871 27.6064 83.8242 28.0566 84.0034 28.5762C84.2578 29.9817 84.0522 31.4321 83.4175 32.7109" fill="#F0592B"/>
<path d="M113.304 19.5234C104.624 19.5234 97.2343 26.6762 95.0275 35.5063C92.1697 46.9345 103.12 56.0257 103.12 56.0257C103.216 56.1016 103.331 56.1499 103.453 56.1655C103.574 56.1811 103.697 56.1635 103.81 56.1145C103.81 56.1145 122.118 46.0707 125.034 35.508C127.094 28.0371 121.746 19.5234 113.304 19.5234ZM115.88 32.9167C115.371 34.5925 114.376 36.0781 113.021 37.1837C111.722 38.0395 110.184 38.4544 108.632 38.3671C107.849 38.4462 107.062 38.26 106.396 37.8383C105.731 37.4166 105.225 36.7837 104.96 36.0403C104.762 34.8523 104.887 33.6326 105.322 32.5099C105.983 30.6131 107.249 28.9876 108.924 27.8848C110.031 27.2543 111.299 26.9671 112.568 27.0595C113.235 27.0428 113.896 27.1949 114.489 27.5018C115.081 27.8087 115.588 28.2606 115.96 28.8155C116.226 29.4687 116.356 30.1695 116.341 30.8748C116.327 31.5801 116.169 32.275 115.877 32.9167" fill="#00B182"/>
</g>
</svg>
